<?xml version="1.0" encoding="utf-8"?>
<!-- Generator: Adobe Illustrator 21.0.0, SVG Export Plug-In . SVG Version: 6.00 Build 0)  -->
<svg version="1.1" id="Layer_1" xmlns="http://www.w3.org/2000/svg" xmlns:xlink="http://www.w3.org/1999/xlink" x="0px" y="0px"
	 viewBox="0 0 145.6 145.6" style="enable-background:new 0 0 145.6 145.6;" xml:space="preserve">
<style type="text/css">
	.st0{fill:#488CFF;}
	.st1{opacity:0.13;clip-path:url(#SVGID_2_);}
	.st2{fill:#FFFFFF;}
	.st3{fill:url(#SVGID_3_);}
</style>
<circle class="st0" cx="72.8" cy="72.8" r="72.8"/>
<g>
	<defs>
		<circle id="SVGID_1_" cx="72.8" cy="72.8" r="72.8"/>
	</defs>
	<clipPath id="SVGID_2_">
		<use xlink:href="#SVGID_1_"  style="overflow:visible;"/>
	</clipPath>
	<g class="st1">
		<path d="M112.2,67.8L64.2,19.7c-7.2,1.2-13.8,3.9-19.7,7.6l39.3,36.9L42.1,63L35,79.5l48.1,48.1c7.2-1.2,13.8-3.9,19.7-7.6
			L63.5,83.1l41.6,1.2L112.2,67.8z"/>
		<path d="M113,68.5L64.9,20.4c-7.2,1.2-13.8,3.9-19.7,7.6l39.3,36.9l-41.6-1.2l-7.1,16.5l48.1,48.1c7.2-1.2,13.8-3.9,19.7-7.6
			L64.2,83.8l41.6,1.2L113,68.5z"/>
		<path d="M113.7,69.2L65.6,21.1c-7.2,1.2-13.8,3.9-19.7,7.6l39.3,36.9l-41.6-1.2l-7.1,16.5L84.5,129c7.2-1.2,13.8-3.9,19.7-7.6
			L64.9,84.5l41.6,1.2L113.7,69.2z"/>
		<path d="M114.4,69.9L66.3,21.8c-7.2,1.2-13.8,3.9-19.7,7.6l39.3,36.9l-41.6-1.2l-7.1,16.5l48.1,48.1c7.2-1.2,13.8-3.9,19.7-7.6
			L65.6,85.2l41.6,1.2L114.4,69.9z"/>
		<path d="M115.1,70.6L67,22.5c-7.2,1.2-13.8,3.9-19.7,7.6L86.6,67L45,65.8l-7.1,16.5l48.1,48.1c7.2-1.2,13.8-3.9,19.7-7.6
			L66.3,85.9l41.6,1.2L115.1,70.6z"/>
		<path d="M115.8,71.3L67.7,23.2c-7.2,1.2-13.8,3.9-19.7,7.6l39.3,36.9l-41.6-1.2L38.6,83l48.1,48.1c7.2-1.2,13.8-3.9,19.7-7.6
			L67.1,86.6l41.6,1.2L115.8,71.3z"/>
		<path d="M116.5,72L68.4,23.9c-7.2,1.2-13.8,3.9-19.7,7.6L88,68.4l-41.6-1.2l-7.1,16.5l48.1,48.1c7.2-1.2,13.8-3.9,19.7-7.6
			L67.8,87.3l41.6,1.2L116.5,72z"/>
		<path d="M117.2,72.7L69.1,24.7c-7.2,1.2-13.8,3.9-19.7,7.6l39.3,36.9L47.1,68L40,84.5l48.1,48.1c7.2-1.2,13.8-3.9,19.7-7.6
			L68.5,88l41.6,1.2L117.2,72.7z"/>
		<path d="M117.9,73.4L69.9,25.4C62.7,26.6,56,29.2,50.1,33l39.3,36.9l-41.6-1.2l-7.1,16.5l48.1,48.1c7.2-1.2,13.8-3.9,19.7-7.6
			L69.2,88.7l41.6,1.2L117.9,73.4z"/>
		<path d="M118.6,74.1L70.6,26.1c-7.2,1.2-13.8,3.9-19.7,7.6l39.3,36.9l-41.6-1.2l-7.1,16.5L89.5,134c7.2-1.2,13.8-3.9,19.7-7.6
			L69.9,89.5l41.6,1.2L118.6,74.1z"/>
		<path d="M119.3,74.9L71.3,26.8c-7.2,1.2-13.8,3.9-19.7,7.6l39.3,36.9l-41.6-1.2l-7.1,16.5l48.1,48.1c7.2-1.2,13.8-3.9,19.7-7.6
			L70.6,90.2l41.6,1.2L119.3,74.9z"/>
		<path d="M120.1,75.6L72,27.5c-7.2,1.2-13.8,3.9-19.7,7.6L91.6,72l-41.6-1.2l-7.1,16.5l48.1,48.1c7.2-1.2,13.8-3.9,19.7-7.6
			L71.3,90.9l41.6,1.2L120.1,75.6z"/>
		<path d="M120.8,76.3L72.7,28.2c-7.2,1.2-13.8,3.9-19.7,7.6l39.3,36.9l-41.6-1.2L43.5,88l48.1,48.1c7.2-1.2,13.8-3.9,19.7-7.6
			L72,91.6l41.6,1.2L120.8,76.3z"/>
		<path d="M121.5,77L73.4,28.9c-7.2,1.2-13.8,3.9-19.7,7.6L93,73.4l-41.6-1.2l-7.1,16.5l48.1,48.1c7.2-1.2,13.8-3.9,19.7-7.6
			L72.7,92.3l41.6,1.2L121.5,77z"/>
		<path d="M122.2,77.7L74.1,29.6c-7.2,1.2-13.8,3.9-19.7,7.6l39.3,36.9l-41.6-1.2l-7.1,16.5L93,137.5c7.2-1.2,13.8-3.9,19.7-7.6
			L73.4,93l41.6,1.2L122.2,77.7z"/>
		<path d="M122.9,78.4L74.8,30.3c-7.2,1.2-13.8,3.9-19.7,7.6l39.3,36.9l-41.6-1.2l-7.1,16.5l48.1,48.1c7.2-1.2,13.8-3.9,19.7-7.6
			L74.2,93.7l41.6,1.2L122.9,78.4z"/>
		<path d="M123.6,79.1L75.5,31c-7.2,1.2-13.8,3.9-19.7,7.6l39.3,36.9l-41.6-1.2l-7.1,16.5l48.1,48.1c7.2-1.2,13.8-3.9,19.7-7.6
			L74.9,94.4l41.6,1.2L123.6,79.1z"/>
		<path d="M124.3,79.8L76.2,31.8c-7.2,1.2-13.8,3.9-19.7,7.6l39.3,36.9l-41.6-1.2l-7.1,16.5l48.1,48.1c7.2-1.2,13.8-3.9,19.7-7.6
			L75.6,95.1l41.6,1.2L124.3,79.8z"/>
		<path d="M125,80.5L77,32.5c-7.2,1.2-13.8,3.9-19.7,7.6L96.5,77l-41.6-1.2l-7.1,16.5l48.1,48.1c7.2-1.2,13.8-3.9,19.7-7.6
			L76.3,95.8l41.6,1.2L125,80.5z"/>
		<path d="M125.7,81.2L77.7,33.2c-7.2,1.2-13.8,3.9-19.7,7.6l39.3,36.9l-41.6-1.2L48.5,93l48.1,48.1c7.2-1.2,13.8-3.9,19.7-7.6
			L77,96.6l41.6,1.2L125.7,81.2z"/>
		<path d="M126.4,82L78.4,33.9c-7.2,1.2-13.8,3.9-19.7,7.6l39.3,36.9l-41.6-1.2l-7.1,16.5l48.1,48.1c7.2-1.2,13.8-3.9,19.7-7.6
			L77.7,97.3l41.6,1.2L126.4,82z"/>
		<path d="M127.2,82.7L79.1,34.6c-7.2,1.2-13.8,3.9-19.7,7.6l39.3,36.9L57,77.9l-7.1,16.5L98,142.5c7.2-1.2,13.8-3.9,19.7-7.6
			L78.4,98l41.6,1.2L127.2,82.7z"/>
		<path d="M127.9,83.4L79.8,35.3c-7.2,1.2-13.8,3.9-19.7,7.6l39.3,36.9l-41.6-1.2l-7.1,16.5l48.1,48.1c7.2-1.2,13.8-3.9,19.7-7.6
			L79.1,98.7l41.6,1.2L127.9,83.4z"/>
		<path d="M128.6,84.1L80.5,36c-7.2,1.2-13.8,3.9-19.7,7.6l39.3,36.9l-41.6-1.2l-7.1,16.5l48.1,48.1c7.2-1.2,13.8-3.9,19.7-7.6
			L79.8,99.4l41.6,1.2L128.6,84.1z"/>
		<path d="M129.3,84.8L81.2,36.7c-7.2,1.2-13.8,3.9-19.7,7.6l39.3,36.9L59.2,80L52,96.5l48.1,48.1c7.2-1.2,13.8-3.9,19.7-7.6
			l-39.3-36.9l41.6,1.2L129.3,84.8z"/>
		<path d="M130,85.5L81.9,37.4c-7.2,1.2-13.8,3.9-19.7,7.6l39.3,36.9l-41.6-1.2l-7.1,16.5l48.1,48.1c7.2-1.2,13.8-3.9,19.7-7.6
			l-39.3-36.9l41.6,1.2L130,85.5z"/>
		<path d="M130.7,86.2L82.6,38.1c-7.2,1.2-13.8,3.9-19.7,7.6l39.3,36.9l-41.6-1.2L53.5,98l48.1,48.1c7.2-1.2,13.8-3.9,19.7-7.6
			L82,101.5l41.6,1.2L130.7,86.2z"/>
		<path d="M131.4,86.9L83.3,38.9c-7.2,1.2-13.8,3.9-19.7,7.6l39.3,36.9l-41.6-1.2l-7.1,16.5l48.1,48.1c7.2-1.2,13.8-3.9,19.7-7.6
			l-39.3-36.9l41.6,1.2L131.4,86.9z"/>
		<path d="M132.1,87.6L84.1,39.6c-7.2,1.2-13.8,3.9-19.7,7.6l39.3,36.9L62,82.9l-7.1,16.5l48.1,48.1c7.2-1.2,13.8-3.9,19.7-7.6
			l-39.3-36.9l41.6,1.2L132.1,87.6z"/>
		<path d="M132.8,88.3L84.8,40.3c-7.2,1.2-13.8,3.9-19.7,7.6l39.3,36.9l-41.6-1.2l-7.1,16.5l48.1,48.1c7.2-1.2,13.8-3.9,19.7-7.6
			l-39.3-36.9l41.6,1.2L132.8,88.3z"/>
		<path d="M133.5,89.1L85.5,41c-7.2,1.2-13.8,3.9-19.7,7.6L105,85.5l-41.6-1.2l-7.1,16.5l48.1,48.1c7.2-1.2,13.8-3.9,19.7-7.6
			l-39.3-36.9l41.6,1.2L133.5,89.1z"/>
		<path d="M134.3,89.8L86.2,41.7c-7.2,1.2-13.8,3.9-19.7,7.6l39.3,36.9L64.1,85L57,101.5l48.1,48.1c7.2-1.2,13.8-3.9,19.7-7.6
			l-39.3-36.9l41.6,1.2L134.3,89.8z"/>
		<path d="M135,90.5L86.9,42.4c-7.2,1.2-13.8,3.9-19.7,7.6l39.3,36.9l-41.6-1.2l-7.1,16.5l48.1,48.1c7.2-1.2,13.8-3.9,19.7-7.6
			l-39.3-36.9l41.6,1.2L135,90.5z"/>
		<path d="M135.7,91.2L87.6,43.1c-7.2,1.2-13.8,3.9-19.7,7.6l39.3,36.9l-41.6-1.2l-7.1,16.5l48.1,48.1c7.2-1.2,13.8-3.9,19.7-7.6
			l-39.3-36.9l41.6,1.2L135.7,91.2z"/>
		<path d="M136.4,91.9L88.3,43.8c-7.2,1.2-13.8,3.9-19.7,7.6l39.3,36.9l-41.6-1.2l-7.1,16.5l48.1,48.1c7.2-1.2,13.8-3.9,19.7-7.6
			l-39.3-36.9l41.6,1.2L136.4,91.9z"/>
		<path d="M137.1,92.6L89,44.5c-7.2,1.2-13.8,3.9-19.7,7.6L108.6,89L67,87.9l-7.1,16.5l48.1,48.1c7.2-1.2,13.8-3.9,19.7-7.6
			l-39.3-36.9l41.6,1.2L137.1,92.6z"/>
		<path d="M137.8,93.3L89.7,45.2c-7.2,1.2-13.8,3.9-19.7,7.6l39.3,36.9l-41.6-1.2l-7.1,16.5l48.1,48.1c7.2-1.2,13.8-3.9,19.7-7.6
			l-39.3-36.9l41.6,1.2L137.8,93.3z"/>
		<path d="M138.5,94L90.4,46c-7.2,1.2-13.8,3.9-19.7,7.6L110,90.5l-41.6-1.2l-7.1,16.5l48.1,48.1c7.2-1.2,13.8-3.9,19.7-7.6
			l-39.3-36.9l41.6,1.2L138.5,94z"/>
		<path d="M139.2,94.7L91.2,46.7c-7.2,1.2-13.8,3.9-19.7,7.6l39.3,36.9L69.1,90L62,106.5l48.1,48.1c7.2-1.2,13.8-3.9,19.7-7.6
			L90.5,110l41.6,1.2L139.2,94.7z"/>
		<path d="M139.9,95.4L91.9,47.4C84.7,48.6,78,51.2,72.1,55l39.3,36.9l-41.6-1.2l-7.1,16.5l48.1,48.1c7.2-1.2,13.8-3.9,19.7-7.6
			l-39.3-36.9l41.6,1.2L139.9,95.4z"/>
		<path d="M140.6,96.2L92.6,48.1c-7.2,1.2-13.8,3.9-19.7,7.6l39.3,36.9l-41.6-1.2l-7.1,16.5l48.1,48.1c7.2-1.2,13.8-3.9,19.7-7.6
			l-39.3-36.9l41.6,1.2L140.6,96.2z"/>
		<path d="M141.4,96.9L93.3,48.8c-7.2,1.2-13.8,3.9-19.7,7.6l39.3,36.9l-41.6-1.2l-7.1,16.5l48.1,48.1c7.2-1.2,13.8-3.9,19.7-7.6
			l-39.3-36.9l41.6,1.2L141.4,96.9z"/>
		<path d="M142.1,97.6L94,49.5c-7.2,1.2-13.8,3.9-19.7,7.6L113.6,94L72,92.8l-7.1,16.5l48.1,48.1c7.2-1.2,13.8-3.9,19.7-7.6
			l-39.3-36.9l41.6,1.2L142.1,97.6z"/>
		<path d="M142.8,98.3L94.7,50.2c-7.2,1.2-13.8,3.9-19.7,7.6l39.3,36.9l-41.6-1.2L65.5,110l48.1,48.1c7.2-1.2,13.8-3.9,19.7-7.6
			L94,113.6l41.6,1.2L142.8,98.3z"/>
		<path d="M143.5,99L95.4,50.9c-7.2,1.2-13.8,3.9-19.7,7.6L115,95.4l-41.6-1.2l-7.1,16.5l48.1,48.1c7.2-1.2,13.8-3.9,19.7-7.6
			l-39.3-36.9l41.6,1.2L143.5,99z"/>
		<path d="M144.2,99.7L96.1,51.6c-7.2,1.2-13.8,3.9-19.7,7.6l39.3,36.9L74.1,95L67,111.4l48.1,48.1c7.2-1.2,13.8-3.9,19.7-7.6
			L95.5,115l41.6,1.2L144.2,99.7z"/>
		<path d="M144.9,100.4L96.8,52.3c-7.2,1.2-13.8,3.9-19.7,7.6l39.3,36.9l-41.6-1.2l-7.1,16.5l48.1,48.1c7.2-1.2,13.8-3.9,19.7-7.6
			l-39.3-36.9l41.6,1.2L144.9,100.4z"/>
		<path d="M145.6,101.1L97.5,53.1c-7.2,1.2-13.8,3.9-19.7,7.6l39.3,36.9l-41.6-1.2l-7.1,16.5l48.1,48.1c7.2-1.2,13.8-3.9,19.7-7.6
			l-39.3-36.9l41.6,1.2L145.6,101.1z"/>
		<path d="M146.3,101.8L98.3,53.8c-7.2,1.2-13.8,3.9-19.7,7.6l39.3,36.9l-41.6-1.2l-7.1,16.5l48.1,48.1c7.2-1.2,13.8-3.9,19.7-7.6
			l-39.3-36.9l41.6,1.2L146.3,101.8z"/>
		<path d="M147,102.5L99,54.5c-7.2,1.2-13.8,3.9-19.7,7.6L118.5,99l-41.6-1.2l-7.1,16.5l48.1,48.1c7.2-1.2,13.8-3.9,19.7-7.6
			l-39.3-36.9l41.6,1.2L147,102.5z"/>
		<path d="M147.7,103.3L99.7,55.2c-7.2,1.2-13.8,3.9-19.7,7.6l39.3,36.9l-41.6-1.2L70.5,115l48.1,48.1c7.2-1.2,13.8-3.9,19.7-7.6
			L99,118.6l41.6,1.2L147.7,103.3z"/>
		<path d="M148.5,104l-48.1-48.1c-7.2,1.2-13.8,3.9-19.7,7.6l39.3,36.9l-41.6-1.2l-7.1,16.5l48.1,48.1c7.2-1.2,13.8-3.9,19.7-7.6
			l-39.3-36.9l41.6,1.2L148.5,104z"/>
		<path d="M149.2,104.7l-48.1-48.1c-7.2,1.2-13.8,3.9-19.7,7.6l39.3,36.9l-41.6-1.2l-7.1,16.5l48.1,48.1c7.2-1.2,13.8-3.9,19.7-7.6
			L100.4,120l41.6,1.2L149.2,104.7z"/>
		<path d="M149.9,105.4l-48.1-48.1c-7.2,1.2-13.8,3.9-19.7,7.6l39.3,36.9l-41.6-1.2l-7.1,16.5l48.1,48.1c7.2-1.2,13.8-3.9,19.7-7.6
			l-39.3-36.9l41.6,1.2L149.9,105.4z"/>
		<path d="M150.6,106.1L102.5,58c-7.2,1.2-13.8,3.9-19.7,7.6l39.3,36.9l-41.6-1.2l-7.1,16.5l48.1,48.1c7.2-1.2,13.8-3.9,19.7-7.6
			l-39.3-36.9l41.6,1.2L150.6,106.1z"/>
		<path d="M151.3,106.8l-48.1-48.1c-7.2,1.2-13.8,3.9-19.7,7.6l39.3,36.9l-41.6-1.2l-7.1,16.5l48.1,48.1c7.2-1.2,13.8-3.9,19.7-7.6
			l-39.3-36.9l41.6,1.2L151.3,106.8z"/>
		<path d="M152,107.5l-48.1-48.1c-7.2,1.2-13.8,3.9-19.7,7.6l39.3,36.9l-41.6-1.2l-7.1,16.5l48.1,48.1c7.2-1.2,13.8-3.9,19.7-7.6
			l-39.3-36.9l41.6,1.2L152,107.5z"/>
		<path d="M152.7,108.2l-48.1-48.1c-7.2,1.2-13.8,3.9-19.7,7.6l39.3,36.9l-41.6-1.2L75.5,120l48.1,48.1c7.2-1.2,13.8-3.9,19.7-7.6
			L104,123.5l41.6,1.2L152.7,108.2z"/>
		<path d="M153.4,108.9l-48.1-48.1c-7.2,1.2-13.8,3.9-19.7,7.6l39.3,36.9l-41.6-1.2l-7.1,16.5l48.1,48.1c7.2-1.2,13.8-3.9,19.7-7.6
			l-39.3-36.9l41.6,1.2L153.4,108.9z"/>
		<path d="M154.1,109.6l-48.1-48.1c-7.2,1.2-13.8,3.9-19.7,7.6l39.3,36.9L84,104.9l-7.1,16.5l48.1,48.1c7.2-1.2,13.8-3.9,19.7-7.6
			L105.4,125l41.6,1.2L154.1,109.6z"/>
		<path d="M154.8,110.4l-48.1-48.1c-7.2,1.2-13.8,3.9-19.7,7.6l39.3,36.9l-41.6-1.2l-7.1,16.5l48.1,48.1c7.2-1.2,13.8-3.9,19.7-7.6
			l-39.3-36.9l41.6,1.2L154.8,110.4z"/>
		<path d="M155.6,111.1L107.5,63c-7.2,1.2-13.8,3.9-19.7,7.6l39.3,36.9l-41.6-1.2l-7.1,16.5l48.1,48.1c7.2-1.2,13.8-3.9,19.7-7.6
			l-39.3-36.9l41.6,1.2L155.6,111.1z"/>
		<path d="M156.3,111.8l-48.1-48.1c-7.2,1.2-13.8,3.9-19.7,7.6l39.3,36.9L86.2,107L79,123.5l48.1,48.1c7.2-1.2,13.8-3.9,19.7-7.6
			l-39.3-36.9l41.6,1.2L156.3,111.8z"/>
		<path d="M157,112.5l-48.1-48.1c-7.2,1.2-13.8,3.9-19.7,7.6l39.3,36.9l-41.6-1.2l-7.1,16.5l48.1,48.1c7.2-1.2,13.8-3.9,19.7-7.6
			l-39.3-36.9l41.6,1.2L157,112.5z"/>
		<path d="M157.7,113.2l-48.1-48.1c-7.2,1.2-13.8,3.9-19.7,7.6l39.3,36.9l-41.6-1.2l-7.1,16.5l48.1,48.1c7.2-1.2,13.8-3.9,19.7-7.6
			l-39.3-36.9l41.6,1.2L157.7,113.2z"/>
		<path d="M158.4,113.9l-48.1-48.1c-7.2,1.2-13.8,3.9-19.7,7.6l39.3,36.9l-41.6-1.2l-7.1,16.5l48.1,48.1c7.2-1.2,13.8-3.9,19.7-7.6
			l-39.3-36.9l41.6,1.2L158.4,113.9z"/>
		<path d="M159.1,114.6L111,66.5c-7.2,1.2-13.8,3.9-19.7,7.6l39.3,36.9L89,109.9l-7.1,16.5l48.1,48.1c7.2-1.2,13.8-3.9,19.7-7.6
			l-39.3-36.9l41.6,1.2L159.1,114.6z"/>
		<path d="M159.8,115.3l-48.1-48.1c-7.2,1.2-13.8,3.9-19.7,7.6l39.3,36.9l-41.6-1.2l-7.1,16.5l48.1,48.1c7.2-1.2,13.8-3.9,19.7-7.6
			l-39.3-36.9l41.6,1.2L159.8,115.3z"/>
		<path d="M160.5,116L112.5,68c-7.2,1.2-13.8,3.9-19.7,7.6l39.3,36.9l-41.6-1.2l-7.1,16.5l48.1,48.1c7.2-1.2,13.8-3.9,19.7-7.6
			l-39.3-36.9l41.6,1.2L160.5,116z"/>
		<path d="M161.2,116.7l-48.1-48.1c-7.2,1.2-13.8,3.9-19.7,7.6l39.3,36.9L91.1,112L84,128.5l48.1,48.1c7.2-1.2,13.8-3.9,19.7-7.6
			l-39.3-36.9l41.6,1.2L161.2,116.7z"/>
		<path d="M161.9,117.5l-48.1-48.1c-7.2,1.2-13.8,3.9-19.7,7.6l39.3,36.9l-41.6-1.2l-7.1,16.5l48.1,48.1c7.2-1.2,13.8-3.9,19.7-7.6
			l-39.3-36.9l41.6,1.2L161.9,117.5z"/>
		<path d="M162.7,118.2l-48.1-48.1c-7.2,1.2-13.8,3.9-19.7,7.6l39.3,36.9l-41.6-1.2l-7.1,16.5l48.1,48.1c7.2-1.2,13.8-3.9,19.7-7.6
			l-39.3-36.9l41.6,1.2L162.7,118.2z"/>
		<path d="M163.4,118.9l-48.1-48.1c-7.2,1.2-13.8,3.9-19.7,7.6l39.3,36.9l-41.6-1.2l-7.1,16.5l48.1,48.1c7.2-1.2,13.8-3.9,19.7-7.6
			l-39.3-36.9l41.6,1.2L163.4,118.9z"/>
		<path d="M164.1,119.6L116,71.5c-7.2,1.2-13.8,3.9-19.7,7.6l39.3,36.9L94,114.8l-7.1,16.5l48.1,48.1c7.2-1.2,13.8-3.9,19.7-7.6
			l-39.3-36.9l41.6,1.2L164.1,119.6z"/>
		<path d="M164.8,120.3l-48.1-48.1c-7.2,1.2-13.8,3.9-19.7,7.6l39.3,36.9l-41.6-1.2L87.5,132l48.1,48.1c7.2-1.2,13.8-3.9,19.7-7.6
			L116,135.6l41.6,1.2L164.8,120.3z"/>
		<path d="M165.5,121l-48.1-48.1c-7.2,1.2-13.8,3.9-19.7,7.6l39.3,36.9l-41.6-1.2l-7.1,16.5l48.1,48.1c7.2-1.2,13.8-3.9,19.7-7.6
			l-39.3-36.9l41.6,1.2L165.5,121z"/>
		<path d="M166.2,121.7l-48.1-48.1c-7.2,1.2-13.8,3.9-19.7,7.6l39.3,36.9L96.1,117L89,133.5l48.1,48.1c7.2-1.2,13.8-3.9,19.7-7.6
			L117.5,137l41.6,1.2L166.2,121.7z"/>
		<path d="M166.9,122.4l-48.1-48.1c-7.2,1.2-13.8,3.9-19.7,7.6l39.3,36.9l-41.6-1.2l-7.1,16.5l48.1,48.1c7.2-1.2,13.8-3.9,19.7-7.6
			l-39.3-36.9l41.6,1.2L166.9,122.4z"/>
		<path d="M167.6,123.1l-48.1-48.1c-7.2,1.2-13.8,3.9-19.7,7.6l39.3,36.9l-41.6-1.2l-7.1,16.5l48.1,48.1c7.2-1.2,13.8-3.9,19.7-7.6
			l-39.3-36.9l41.6,1.2L167.6,123.1z"/>
		<path d="M168.3,123.8l-48.1-48.1c-7.2,1.2-13.8,3.9-19.7,7.6l39.3,36.9l-41.6-1.2l-7.1,16.5l48.1,48.1c7.2-1.2,13.8-3.9,19.7-7.6
			l-39.3-36.9l41.6,1.2L168.3,123.8z"/>
		<path d="M169,124.6L121,76.5c-7.2,1.2-13.8,3.9-19.7,7.6l39.3,36.9l-41.6-1.2l-7.1,16.5l48.1,48.1c7.2-1.2,13.8-3.9,19.7-7.6
			l-39.3-36.9l41.6,1.2L169,124.6z"/>
		<path d="M169.8,125.3l-48.1-48.1c-7.2,1.2-13.8,3.9-19.7,7.6l39.3,36.9l-41.6-1.2L92.5,137l48.1,48.1c7.2-1.2,13.8-3.9,19.7-7.6
			L121,140.6l41.6,1.2L169.8,125.3z"/>
		<path d="M170.5,126l-48.1-48.1c-7.2,1.2-13.8,3.9-19.7,7.6l39.3,36.9l-41.6-1.2l-7.1,16.5l48.1,48.1c7.2-1.2,13.8-3.9,19.7-7.6
			l-39.3-36.9l41.6,1.2L170.5,126z"/>
		<path d="M171.2,126.7l-48.1-48.1c-7.2,1.2-13.8,3.9-19.7,7.6l39.3,36.9l-41.6-1.2l-7.1,16.5l48.1,48.1c7.2-1.2,13.8-3.9,19.7-7.6
			L122.4,142l41.6,1.2L171.2,126.7z"/>
		<path d="M171.9,127.4l-48.1-48.1c-7.2,1.2-13.8,3.9-19.7,7.6l39.3,36.9l-41.6-1.2l-7.1,16.5l48.1,48.1c7.2-1.2,13.8-3.9,19.7-7.6
			l-39.3-36.9l41.6,1.2L171.9,127.4z"/>
		<path d="M172.6,128.1L124.5,80c-7.2,1.2-13.8,3.9-19.7,7.6l39.3,36.9l-41.6-1.2l-7.1,16.5l48.1,48.1c7.2-1.2,13.8-3.9,19.7-7.6
			l-39.3-36.9l41.6,1.2L172.6,128.1z"/>
		<path d="M173.3,128.8l-48.1-48.1c-7.2,1.2-13.8,3.9-19.7,7.6l39.3,36.9l-41.6-1.2l-7.1,16.5l48.1,48.1c7.2-1.2,13.8-3.9,19.7-7.6
			l-39.3-36.9l41.6,1.2L173.3,128.8z"/>
		<path d="M174,129.5l-48.1-48.1c-7.2,1.2-13.8,3.9-19.7,7.6l39.3,36.9l-41.6-1.2l-7.1,16.5l48.1,48.1c7.2-1.2,13.8-3.9,19.7-7.6
			l-39.3-36.9l41.6,1.2L174,129.5z"/>
		<path d="M174.7,130.2l-48.1-48.1c-7.2,1.2-13.8,3.9-19.7,7.6l39.3,36.9l-41.6-1.2L97.5,142l48.1,48.1c7.2-1.2,13.8-3.9,19.7-7.6
			L126,145.5l41.6,1.2L174.7,130.2z"/>
		<path d="M175.4,130.9l-48.1-48.1c-7.2,1.2-13.8,3.9-19.7,7.6l39.3,36.9l-41.6-1.2l-7.1,16.5l48.1,48.1c7.2-1.2,13.8-3.9,19.7-7.6
			l-39.3-36.9l41.6,1.2L175.4,130.9z"/>
		<path d="M176.1,131.7l-48.1-48.1c-7.2,1.2-13.8,3.9-19.7,7.6l39.3,36.9l-41.6-1.2l-7.1,16.5l48.1,48.1c7.2-1.2,13.8-3.9,19.7-7.6
			L127.4,147l41.6,1.2L176.1,131.7z"/>
		<path d="M176.9,132.4l-48.1-48.1c-7.2,1.2-13.8,3.9-19.7,7.6l39.3,36.9l-41.6-1.2l-7.1,16.5l48.1,48.1c7.2-1.2,13.8-3.9,19.7-7.6
			l-39.3-36.9l41.6,1.2L176.9,132.4z"/>
		<path d="M177.6,133.1L129.5,85c-7.2,1.2-13.8,3.9-19.7,7.6l39.3,36.9l-41.6-1.2l-7.1,16.5l48.1,48.1c7.2-1.2,13.8-3.9,19.7-7.6
			l-39.3-36.9l41.6,1.2L177.6,133.1z"/>
		<path d="M178.3,133.8l-48.1-48.1c-7.2,1.2-13.8,3.9-19.7,7.6l39.3,36.9l-41.6-1.2l-7.1,16.5l48.1,48.1c7.2-1.2,13.8-3.9,19.7-7.6
			l-39.3-36.9l41.6,1.2L178.3,133.8z"/>
		<path d="M179,134.5l-48.1-48.1c-7.2,1.2-13.8,3.9-19.7,7.6l39.3,36.9l-41.6-1.2l-7.1,16.5l48.1,48.1c7.2-1.2,13.8-3.9,19.7-7.6
			l-39.3-36.9l41.6,1.2L179,134.5z"/>
		<path d="M179.7,135.2l-48.1-48.1c-7.2,1.2-13.8,3.9-19.7,7.6l39.3,36.9l-41.6-1.2l-7.1,16.5l48.1,48.1c7.2-1.2,13.8-3.9,19.7-7.6
			L131,150.5l41.6,1.2L179.7,135.2z"/>
		<path d="M180.4,135.9l-48.1-48.1c-7.2,1.2-13.8,3.9-19.7,7.6l39.3,36.9l-41.6-1.2l-7.1,16.5l48.1,48.1c7.2-1.2,13.8-3.9,19.7-7.6
			l-39.3-36.9l41.6,1.2L180.4,135.9z"/>
		<path d="M181.1,136.6L133,88.6c-7.2,1.2-13.8,3.9-19.7,7.6l39.3,36.9l-41.6-1.2l-7.1,16.5l48.1,48.1c7.2-1.2,13.8-3.9,19.7-7.6
			l-39.3-36.9l41.6,1.2L181.1,136.6z"/>
		<path d="M181.8,137.3l-48.1-48.1c-7.2,1.2-13.8,3.9-19.7,7.6l39.3,36.9l-41.6-1.2l-7.1,16.5l48.1,48.1c7.2-1.2,13.8-3.9,19.7-7.6
			l-39.3-36.9l41.6,1.2L181.8,137.3z"/>
		<path d="M182.5,138L134.5,90c-7.2,1.2-13.8,3.9-19.7,7.6l39.3,36.9l-41.6-1.2l-7.1,16.5l48.1,48.1c7.2-1.2,13.8-3.9,19.7-7.6
			l-39.3-36.9l41.6,1.2L182.5,138z"/>
		<path d="M183.2,138.8l-48.1-48.1c-7.2,1.2-13.8,3.9-19.7,7.6l39.3,36.9l-41.6-1.2l-7.1,16.5l48.1,48.1c7.2-1.2,13.8-3.9,19.7-7.6
			l-39.3-36.9l41.6,1.2L183.2,138.8z"/>
		<path d="M184,139.5l-48.1-48.1c-7.2,1.2-13.8,3.9-19.7,7.6l39.3,36.9l-41.6-1.2l-7.1,16.5l48.1,48.1c7.2-1.2,13.8-3.9,19.7-7.6
			l-39.3-36.9l41.6,1.2L184,139.5z"/>
		<path d="M184.7,140.2l-48.1-48.1c-7.2,1.2-13.8,3.9-19.7,7.6l39.3,36.9l-41.6-1.2l-7.1,16.5l48.1,48.1c7.2-1.2,13.8-3.9,19.7-7.6
			l-39.3-36.9l41.6,1.2L184.7,140.2z"/>
		<path d="M185.4,140.9l-48.1-48.1c-7.2,1.2-13.8,3.9-19.7,7.6l39.3,36.9l-41.6-1.2l-7.1,16.5l48.1,48.1c7.2-1.2,13.8-3.9,19.7-7.6
			l-39.3-36.9l41.6,1.2L185.4,140.9z"/>
		<path d="M186.1,141.6L138,93.5c-7.2,1.2-13.8,3.9-19.7,7.6l39.3,36.9l-41.6-1.2l-7.1,16.5l48.1,48.1c7.2-1.2,13.8-3.9,19.7-7.6
			l-39.3-36.9l41.6,1.2L186.1,141.6z"/>
		<path d="M186.8,142.3l-48.1-48.1c-7.2,1.2-13.8,3.9-19.7,7.6l39.3,36.9l-41.6-1.2l-7.1,16.5l48.1,48.1c7.2-1.2,13.8-3.9,19.7-7.6
			l-39.3-36.9l41.6,1.2L186.8,142.3z"/>
		<path d="M187.5,143l-48.1-48.1c-7.2,1.2-13.8,3.9-19.7,7.6l39.3,36.9l-41.6-1.2l-7.1,16.5l48.1,48.1c7.2-1.2,13.8-3.9,19.7-7.6
			l-39.3-36.9l41.6,1.2L187.5,143z"/>
	</g>
</g>
<g>
	<path class="st2" d="M111.4,66.9L64,19.5c-7.2,1.2-13.9,3.8-19.8,7.5l60.1,56.4L111.4,66.9z"/>
	<path class="st2" d="M34.2,78.7L81.5,126c7.2-1.2,13.9-3.8,19.8-7.5L41.3,62.2L34.2,78.7z"/>
	<linearGradient id="SVGID_3_" gradientUnits="userSpaceOnUse" x1="63.6535" y1="81.9054" x2="81.9462" y2="63.6127">
		<stop  offset="0" style="stop-color:#F2F2F2"/>
		<stop  offset="3.930715e-02" style="stop-color:#F6F6F6"/>
		<stop  offset="0.1612" style="stop-color:#FDFDFD"/>
		<stop  offset="0.5" style="stop-color:#FFFFFF"/>
		<stop  offset="0.8388" style="stop-color:#FDFDFD"/>
		<stop  offset="0.9607" style="stop-color:#F6F6F6"/>
		<stop  offset="1" style="stop-color:#F2F2F2"/>
	</linearGradient>
	<polygon class="st3" points="41.3,62.2 62.7,82.2 104.3,83.4 82.9,63.3 	"/>
</g>
</svg>
