<svg xmlns="http://www.w3.org/2000/svg" xmlns:xlink="http://www.w3.org/1999/xlink" viewBox="0 0 160 160"><style>.st0{fill:#488CFF;} .st1{opacity:0.13;clip-path:url(#SVGID_2_);} .st2{fill:url(#SVGID_3_);} .st3{fill:#FFFFFF;}</style><circle class="st0" cx="80" cy="80" r="80"/><defs><circle id="SVGID_1_" cx="80" cy="80" r="80"/></defs><clipPath id="SVGID_2_"><use xlink:href="#SVGID_1_" overflow="visible"/></clipPath><g class="st1"><path d="M123.4 74.5L70.5 21.6C62.7 23 55.3 25.9 48.8 30L92 70.6l-45.7-1.3-7.8 18.1 52.8 52.8c7.9-1.4 15.2-4.3 21.7-8.4L69.8 91.3l45.7 1.3 7.9-18.1z"/><path d="M124.1 75.2L71.2 22.3c-7.9 1.4-15.2 4.3-21.7 8.4l43.2 40.6L47 70l-7.8 18.1L92 140.9c7.9-1.4 15.2-4.3 21.7-8.4L70.5 92l45.7 1.3 7.9-18.1z"/><path d="M124.8 75.9L72 23c-7.9 1.4-15.2 4.3-21.7 8.4L93.5 72l-45.7-1.3L40 88.8l52.8 52.8c7.9-1.4 15.2-4.3 21.7-8.4L71.2 92.7 117 94l7.8-18.1z"/><path d="M125.5 76.6L72.7 23.8C64.8 25.1 57.5 28 51 32.1l43.2 40.6-45.7-1.3-7.8 18.1 52.8 52.8c7.9-1.4 15.2-4.3 21.7-8.4L71.9 93.4l45.7 1.3 7.9-18.1z"/><path d="M126.2 77.3L73.4 24.5c-7.9 1.4-15.2 4.3-21.7 8.4l43.2 40.6-45.7-1.3-7.8 18.1 52.8 52.8c7.9-1.4 15.2-4.3 21.7-8.4L72.6 94.1l45.7 1.3 7.9-18.1z"/><path d="M126.9 78L74.1 25.2c-7.9 1.4-15.2 4.3-21.7 8.4l43.2 40.6-45.7-1.3-7.9 18 52.8 52.8c7.9-1.4 15.2-4.3 21.7-8.4L73.3 94.8l45.7 1.3 7.9-18.1z"/><path d="M127.6 78.7L74.8 25.9c-7.9 1.4-15.2 4.3-21.7 8.4l43.2 40.6-45.7-1.3-7.8 18.1 52.8 52.8c7.9-1.4 15.2-4.3 21.7-8.4L74.1 95.5l45.7 1.3 7.8-18.1z"/><path d="M128.3 79.4L75.5 26.6C67.6 28 60.3 30.9 53.8 35L97 75.5l-45.7-1.3-7.8 18.1 52.8 52.8c7.9-1.4 15.2-4.3 21.7-8.4L74.8 96.3l45.7 1.3 7.8-18.2z"/><path d="M129 80.1L76.2 27.3c-7.9 1.4-15.2 4.3-21.7 8.4l43.2 40.6L52 74.9 44.1 93 97 145.9c7.9-1.4 15.2-4.3 21.7-8.4L75.5 97l45.7 1.3 7.8-18.2z"/><path d="M129.7 80.8L76.9 28c-7.9 1.4-15.2 4.3-21.7 8.4L98.4 77l-45.7-1.3-7.8 18.1 52.8 52.8c7.9-1.4 15.2-4.3 21.7-8.4L76.2 97.7l45.7 1.3 7.8-18.2z"/><path d="M130.5 81.5L77.6 28.7c-7.9 1.4-15.2 4.3-21.7 8.4l43.2 40.6-45.7-1.3-7.8 18.1 52.8 52.8c7.9-1.4 15.2-4.3 21.7-8.4L76.9 98.4l45.7 1.3 7.9-18.2z"/><path d="M131.2 82.3L78.3 29.4c-7.9 1.4-15.2 4.3-21.7 8.4l43.2 40.6L54.1 77l-7.8 18.1L99.1 148c7.9-1.4 15.2-4.3 21.7-8.4L77.6 99.1l45.7 1.3 7.9-18.1z"/><path d="M131.9 83L79 30.1c-7.9 1.4-15.2 4.3-21.7 8.4L100.5 79l-45.7-1.3L47 95.9l52.8 52.8c7.9-1.4 15.2-4.3 21.7-8.4L78.3 99.8l45.7 1.3 7.9-18.1z"/><path d="M132.6 83.7L79.7 30.8c-7.9 1.4-15.2 4.3-21.7 8.4l43.2 40.6-45.7-1.3-7.8 18.1 52.8 52.8c7.9-1.4 15.2-4.3 21.7-8.4L79 100.5l45.7 1.3 7.9-18.1z"/><path d="M133.3 84.4L80.4 31.5c-7.9 1.4-15.2 4.3-21.7 8.4L102 80.5l-45.7-1.3-7.8 18.1 52.8 52.8c7.9-1.4 15.2-4.3 21.7-8.4l-43.2-40.6 45.7 1.3 7.8-18z"/><path d="M134 85.1L81.1 32.2c-7.9 1.4-15.2 4.3-21.7 8.4l43.2 40.6-45.7-1.3L49.1 98l52.8 52.8c7.9-1.4 15.2-4.3 21.7-8.4l-43.2-40.6 45.7 1.3 7.9-18z"/><path d="M134.7 85.8L81.9 32.9c-7.9 1.4-15.2 4.3-21.7 8.4l43.2 40.6-45.7-1.3-7.8 18.1 52.8 52.8c7.9-1.4 15.2-4.3 21.7-8.4l-43.2-40.6 45.7 1.3 7.8-18z"/><path d="M135.4 86.5L82.6 33.7C74.7 35 67.4 37.9 60.9 42l43.2 40.6-45.7-1.3-7.8 18.1 52.8 52.8c7.9-1.4 15.2-4.3 21.7-8.4l-43.2-40.6 45.7 1.3 7.8-18z"/><path d="M136.1 87.2L83.3 34.4c-7.9 1.4-15.2 4.3-21.7 8.4l43.2 40.6L59 82l-7.8 18.1 52.8 52.8c7.9-1.4 15.2-4.3 21.7-8.4L82.5 104l45.7 1.3 7.9-18.1z"/><path d="M136.8 87.9L84 35.1c-7.9 1.4-15.2 4.3-21.7 8.4L105.5 84l-45.7-1.3-7.8 18.1 52.8 52.8c7.9-1.4 15.2-4.3 21.7-8.4l-43.2-40.6L129 106l7.8-18.1z"/><path d="M137.5 88.6L84.7 35.8C76.8 37.1 69.5 40 63 44.1l43.2 40.6-45.7-1.3-7.8 18.1 52.8 52.8c7.9-1.4 15.2-4.3 21.7-8.4L84 105.3l45.7 1.3 7.8-18z"/><path d="M138.2 89.3L85.4 36.5c-7.9 1.4-15.2 4.3-21.7 8.4l43.2 40.6-45.7-1.3-7.8 18.1 52.8 52.8c7.9-1.4 15.2-4.3 21.7-8.4l-43.2-40.6 45.7 1.3 7.8-18.1z"/><path d="M138.9 90L86.1 37.2c-7.9 1.4-15.2 4.3-21.7 8.4l43.2 40.6-45.7-1.3-7.9 18 52.8 52.8c7.9-1.4 15.2-4.3 21.7-8.4l-43.2-40.6L131 108l7.9-18z"/><path d="M139.6 90.7L86.8 37.9c-7.9 1.4-15.2 4.3-21.7 8.4l43.2 40.6-45.7-1.3-7.8 18.1 52.8 52.8c7.9-1.4 15.2-4.3 21.7-8.4l-43.2-40.6 45.7 1.3 7.8-18.1z"/><path d="M140.4 91.4L87.5 38.6C79.6 40 72.3 42.9 65.8 47L109 87.5l-45.7-1.3-7.8 18.1 52.8 52.8c7.9-1.4 15.2-4.3 21.7-8.4l-43.2-40.6 45.7 1.3 7.9-18z"/><path d="M141.1 92.2L88.2 39.3c-7.9 1.4-15.2 4.3-21.7 8.4l43.2 40.6L64 86.9 56.2 105l52.8 52.8c7.9-1.4 15.2-4.3 21.7-8.4L87.5 109l45.7 1.3 7.9-18.1z"/><path d="M141.8 92.9L88.9 40c-7.9 1.4-15.2 4.3-21.7 8.4L110.4 89l-45.7-1.3-7.8 18.1 52.8 52.8c7.9-1.4 15.2-4.3 21.7-8.4l-43.2-40.6 45.7 1.3 7.9-18z"/><path d="M142.5 93.6L89.6 40.7c-7.9 1.4-15.2 4.3-21.7 8.4l43.2 40.6-45.7-1.3-7.8 18.1 52.8 52.8c7.9-1.4 15.2-4.3 21.7-8.4l-43.2-40.6 45.7 1.3 7.9-18z"/><path d="M143.2 94.3L90.3 41.4c-7.9 1.4-15.2 4.3-21.7 8.4l43.2 40.6-45.7-1.3-7.8 18.1 52.8 52.8c7.9-1.4 15.2-4.3 21.7-8.4L89.6 111l45.7 1.3 7.9-18z"/><path d="M143.9 95L91 42.1c-7.9 1.4-15.2 4.3-21.7 8.4l43.2 40.6-45.7-1.3-7.8 18.1 52.8 52.8c7.9-1.4 15.2-4.3 21.7-8.4l-43.2-40.6L136 113l7.9-18z"/><path d="M144.6 95.7L91.7 42.8c-7.9 1.4-15.2 4.3-21.7 8.4l43.2 40.6-45.7-1.3-7.8 18.1 52.8 52.8c7.9-1.4 15.2-4.3 21.7-8.4L91 112.5l45.7 1.3 7.9-18.1z"/><path d="M145.3 96.4L92.5 43.6C84.6 45 77.3 47.9 70.8 52L114 92.5l-45.7-1.3-7.8 18.1 52.8 52.8c7.9-1.4 15.2-4.3 21.7-8.4l-43.2-40.6 45.7 1.3 7.8-18z"/><path d="M146 97.1L93.2 44.3c-7.9 1.4-15.2 4.3-21.7 8.4l43.2 40.6L69 92l-7.9 18 52.8 52.8c7.9-1.4 15.2-4.3 21.7-8.4l-43.2-40.6 45.7 1.3 7.9-18z"/><path d="M146.7 97.8L93.9 45c-7.9 1.4-15.2 4.3-21.7 8.4L115.4 94l-45.7-1.3-7.8 18.1 52.8 52.8c7.9-1.4 15.2-4.3 21.7-8.4l-43.2-40.6 45.7 1.3 7.8-18.1z"/><path d="M147.4 98.5L94.6 45.7C86.7 47 79.4 49.9 72.9 54l43.2 40.6-45.7-1.3-7.8 18.1 52.8 52.8c7.9-1.4 15.2-4.3 21.7-8.4l-43.2-40.6 45.7 1.3 7.8-18z"/><path d="M148.1 99.2L95.3 46.4c-7.9 1.4-15.2 4.3-21.7 8.4l43.2 40.6L71.1 94l-7.8 18.1 52.8 52.8c7.9-1.4 15.2-4.3 21.7-8.4l-43.2-40.6 45.7 1.3 7.8-18z"/><path d="M148.8 99.9L96 47.1c-7.9 1.4-15.2 4.3-21.7 8.4L117.5 96l-45.7-1.3-7.8 18.1 52.8 52.8c7.9-1.4 15.2-4.3 21.7-8.4l-43.2-40.6 45.7 1.3 7.8-18z"/><path d="M149.5 100.6L96.7 47.8c-7.9 1.4-15.2 4.3-21.7 8.4l43.2 40.6-45.7-1.3-7.8 18.1 52.8 52.8c7.9-1.4 15.2-4.3 21.7-8.4L96 117.5l45.7 1.3 7.8-18.2z"/><path d="M150.2 101.3L97.4 48.5c-7.9 1.4-15.2 4.3-21.7 8.4l43.2 40.6-45.7-1.3-7.8 18.1 52.8 52.8c7.9-1.4 15.2-4.3 21.7-8.4l-43.2-40.6 45.7 1.3 7.8-18.1z"/><path d="M151 102.1L98.1 49.2c-7.9 1.4-15.2 4.3-21.7 8.4l43.2 40.6-45.7-1.3-7.8 18.1 52.8 52.8c7.9-1.4 15.2-4.3 21.7-8.4l-43.2-40.6 45.7 1.3 7.9-18z"/><path d="M151.7 102.8L98.8 49.9c-7.9 1.4-15.2 4.3-21.7 8.4l43.2 40.6-45.7-1.3-7.8 18.1 52.8 52.8c7.9-1.4 15.2-4.3 21.7-8.4l-43.2-40.6 45.7 1.3 7.9-18z"/><path d="M152.4 103.5L99.5 50.6C91.7 52 84.3 54.9 77.8 59L121 99.5l-45.7-1.3-7.8 18.1 52.8 52.8c7.9-1.4 15.2-4.3 21.7-8.4l-43.2-40.6 45.7 1.3 7.9-17.9z"/><path d="M153.1 104.2l-52.8-52.8c-7.9 1.4-15.2 4.3-21.7 8.4l43.2 40.6L76 98.9 68.2 117l52.8 52.8c7.9-1.4 15.2-4.3 21.7-8.4L99.5 121l45.7 1.3 7.9-18.1z"/><path d="M153.8 104.9L100.9 52c-7.9 1.4-15.2 4.3-21.7 8.4l43.2 40.6-45.7-1.3-7.8 18.1 52.8 52.8c7.9-1.4 15.2-4.3 21.7-8.4l-43.2-40.6 45.7 1.3 7.9-18z"/><path d="M154.5 105.6l-52.8-52.8C93.8 54.1 86.5 57 80 61.1l43.2 40.6-45.7-1.3-7.8 18.1 52.8 52.8c7.9-1.4 15.2-4.3 21.7-8.4L101 122.3l45.7 1.3 7.8-18z"/><path d="M155.2 106.3l-52.8-52.8c-7.9 1.4-15.2 4.3-21.7 8.4l43.2 40.6-45.7-1.3-7.8 18.1 52.8 52.8c7.9-1.4 15.2-4.3 21.7-8.4l-43.2-40.6 45.7 1.3 7.8-18.1z"/><path d="M155.9 107l-52.8-52.8c-7.9 1.4-15.2 4.3-21.7 8.4l43.2 40.6-45.7-1.3-7.9 18 52.8 52.8c7.9-1.4 15.2-4.3 21.7-8.4l-43.2-40.6L148 125l7.9-18z"/><path d="M156.6 107.7l-52.8-52.8c-7.9 1.4-15.2 4.3-21.7 8.4l43.2 40.6-45.7-1.3-7.8 18.1 52.8 52.8c7.9-1.4 15.2-4.3 21.7-8.4L103 124.5l45.7 1.3 7.9-18.1z"/><path d="M157.3 108.4l-52.8-52.8C96.6 57 89.3 59.9 82.8 64l43.2 40.6-45.7-1.3-7.8 18.1 52.8 52.8c7.9-1.4 15.2-4.3 21.7-8.4l-43.2-40.6 45.7 1.3 7.8-18.1z"/><path d="M158 109.1l-52.8-52.8c-7.9 1.4-15.2 4.3-21.7 8.4l43.2 40.6-45.7-1.4-7.9 18.1 52.8 52.8c7.9-1.4 15.2-4.3 21.7-8.4L104.5 126l45.7 1.3 7.8-18.2z"/><path d="M158.7 109.8L105.9 57c-7.9 1.4-15.2 4.3-21.7 8.4l43.2 40.6-45.7-1.3-7.8 18.1 52.8 52.8c7.9-1.4 15.2-4.3 21.7-8.4l-43.2-40.6 45.7 1.3 7.8-18.1z"/><path d="M159.4 110.5l-52.8-52.8c-7.9 1.4-15.2 4.3-21.7 8.4l43.2 40.6-45.7-1.3-7.8 18.1 52.8 52.8c7.9-1.4 15.2-4.3 21.7-8.4l-43.2-40.6 45.7 1.3 7.8-18.1z"/><path d="M160.1 111.2l-52.8-52.8c-7.9 1.4-15.2 4.3-21.7 8.4l43.2 40.6-45.7-1.4-7.8 18.1 52.8 52.8c7.9-1.4 15.2-4.3 21.7-8.4l-43.2-40.6 45.7 1.3 7.8-18z"/><path d="M160.9 112L108 59.1c-7.9 1.4-15.2 4.3-21.7 8.4l43.2 40.6-45.7-1.3-7.8 18.1 52.8 52.8c7.9-1.4 15.2-4.3 21.7-8.4l-43.2-40.6L153 130l7.9-18z"/><path d="M161.6 112.7l-52.8-52.8c-7.9 1.4-15.2 4.3-21.7 8.4l43.2 40.6-45.7-1.3-7.8 18.1 52.8 52.8c7.9-1.4 15.2-4.3 21.7-8.4L108 129.5l45.7 1.3 7.9-18.1z"/><path d="M162.3 113.4l-52.8-52.8c-7.9 1.4-15.2 4.3-21.7 8.4l43.2 40.6-45.7-1.3-7.8 18.1 52.8 52.8c7.9-1.4 15.2-4.3 21.7-8.4l-43.2-40.6 45.7 1.3 7.8-18.1z"/><path d="M163 114.1l-52.8-52.8c-7.9 1.4-15.2 4.3-21.7 8.4l43.2 40.6L86 109l-7.9 18 52.8 52.8c7.9-1.4 15.2-4.3 21.7-8.4l-43.2-40.6 45.7 1.3 7.9-18z"/><path d="M163.7 114.8L110.9 62c-7.9 1.4-15.2 4.3-21.7 8.4l43.2 40.6-45.7-1.3-7.8 18.1 52.8 52.8c7.9-1.4 15.2-4.3 21.7-8.4l-43.2-40.6 45.7 1.3 7.8-18.1z"/><path d="M164.4 115.5l-52.8-52.8c-7.9 1.4-15.2 4.3-21.7 8.4l43.2 40.6-45.7-1.3-7.8 18.1 52.8 52.8c7.9-1.4 15.2-4.3 21.7-8.4l-43.2-40.6 45.7 1.3 7.8-18.1z"/><path d="M165.1 116.2l-52.8-52.8c-7.9 1.4-15.2 4.3-21.7 8.4l43.2 40.6L88 111l-7.8 18.1 52.8 52.8c7.9-1.4 15.2-4.3 21.7-8.4L111.5 133l45.7 1.3 7.9-18.1z"/><path d="M165.8 116.9L113 64.1c-7.9 1.4-15.2 4.3-21.7 8.4l43.2 40.6-45.7-1.3-7.8 18.1 52.8 52.8c7.9-1.4 15.2-4.3 21.7-8.4l-43.2-40.6L158 135l7.8-18.1z"/><path d="M166.5 117.6l-52.8-52.8c-7.9 1.4-15.2 4.3-21.7 8.4l43.2 40.6-45.7-1.3-7.8 18.1 52.8 52.8c7.9-1.4 15.2-4.3 21.7-8.4L113 134.4l45.7 1.3 7.8-18.1z"/><path d="M167.2 118.3l-52.8-52.8c-7.9 1.4-15.2 4.3-21.7 8.4l43.2 40.6-45.7-1.3-7.8 18.1 52.8 52.8c7.9-1.4 15.2-4.3 21.7-8.4l-43.2-40.6 45.7 1.3 7.8-18.1z"/><path d="M167.9 119l-52.8-52.8c-7.9 1.4-15.2 4.3-21.7 8.4l43.2 40.6-45.7-1.3-7.9 18 52.8 52.8c7.9-1.4 15.2-4.3 21.7-8.4l-43.2-40.6L160 137l7.9-18z"/><path d="M168.6 119.7l-52.8-52.8c-7.9 1.4-15.2 4.3-21.7 8.4l43.2 40.6-45.7-1.3-7.8 18.1 52.8 52.8c7.9-1.4 15.2-4.3 21.7-8.4l-43.2-40.6 45.7 1.3 7.8-18.1z"/><path d="M169.3 120.4l-52.8-52.8c-7.9 1.4-15.2 4.3-21.7 8.4l43.2 40.6-45.7-1.3-7.8 18.1 52.8 52.8c7.9-1.4 15.2-4.3 21.7-8.4l-43.2-40.6 45.7 1.3 7.8-18.1z"/><path d="M170 121.1l-52.8-52.8c-7.9 1.4-15.2 4.3-21.7 8.4l43.2 40.6-45.7-1.4-7.8 18.1 52.8 52.8c7.9-1.4 15.2-4.3 21.7-8.4L116.5 138l45.7 1.3 7.8-18.2z"/><path d="M170.8 121.9L117.9 69c-7.9 1.4-15.2 4.3-21.7 8.4l43.2 40.6-45.7-1.3-7.8 18.1 52.8 52.8c7.9-1.4 15.2-4.3 21.7-8.4l-43.2-40.6 45.7 1.3 7.9-18z"/><path d="M171.5 122.6l-52.8-52.8c-7.9 1.4-15.2 4.3-21.7 8.4l43.2 40.6-45.7-1.3-7.8 18.1 52.8 52.8c7.9-1.4 15.2-4.3 21.7-8.4L118 139.4l45.7 1.3 7.8-18.1z"/><path d="M172.2 123.3l-52.8-52.8c-7.9 1.4-15.2 4.3-21.7 8.4l43.2 40.6-45.8-1.5-7.8 18.1 52.8 52.8c7.9-1.4 15.2-4.3 21.7-8.4l-43.2-40.6 45.7 1.3 7.9-17.9z"/><path d="M172.9 124L120 71.1c-7.9 1.4-15.2 4.3-21.7 8.4l43.2 40.6-45.7-1.3-7.8 18.1 52.8 52.8c7.9-1.4 15.2-4.3 21.7-8.4l-43.2-40.6L165 142l7.9-18z"/><path d="M173.6 124.7l-52.8-52.8c-7.9 1.4-15.2 4.3-21.7 8.4l43.2 40.6-45.7-1.3-7.8 18.1 52.8 52.8c7.9-1.4 15.2-4.3 21.7-8.4L120 141.5l45.7 1.3 7.9-18.1z"/><path d="M174.3 125.4l-52.8-52.8c-7.9 1.4-15.2 4.3-21.7 8.4l43.2 40.6-45.7-1.3-7.8 18.1 52.8 52.8c7.9-1.4 15.2-4.3 21.7-8.4l-43.2-40.6 45.7 1.3 7.8-18.1z"/><path d="M175 126.1l-52.8-52.8c-7.9 1.4-15.2 4.3-21.7 8.4l43.2 40.6L98 121l-7.9 18 52.8 52.8c7.9-1.4 15.2-4.3 21.7-8.4l-43.2-40.6 45.7 1.3 7.9-18z"/><path d="M175.7 126.8L122.9 74c-7.9 1.4-15.2 4.3-21.7 8.4l43.2 40.6-45.7-1.3-7.8 18.1 52.8 52.8c7.9-1.4 15.2-4.3 21.7-8.4l-43.2-40.6 45.7 1.3 7.8-18.1z"/><path d="M176.4 127.5l-52.8-52.8c-7.9 1.4-15.2 4.3-21.7 8.4l43.2 40.6-45.7-1.3-7.8 18.1 52.8 52.8c7.9-1.4 15.2-4.3 21.7-8.4l-43.2-40.6 45.7 1.3 7.8-18.1z"/><path d="M177.1 128.2l-52.8-52.8c-7.9 1.4-15.2 4.3-21.7 8.4l43.2 40.6-45.7-1.3-7.8 18.1 52.8 52.8c7.9-1.4 15.2-4.3 21.7-8.4L123.5 145l45.7 1.3 7.9-18.1z"/><path d="M177.8 128.9L125 76.1c-7.9 1.4-15.2 4.3-21.7 8.4l43.2 40.6-45.7-1.3-7.8 18.1 52.8 52.8c7.9-1.4 15.2-4.3 21.7-8.4l-43.2-40.6L170 147l7.8-18.1z"/><path d="M178.5 129.6l-52.8-52.8c-7.9 1.4-15.2 4.3-21.7 8.4l43.2 40.6-45.7-1.3-7.8 18.1 52.8 52.8c7.9-1.4 15.2-4.3 21.7-8.4L125 146.5l45.7 1.3 7.8-18.2z"/><path d="M179.2 130.3l-52.8-52.8c-7.9 1.4-15.2 4.3-21.7 8.4l43.2 40.6-45.7-1.3-7.8 18.1 52.8 52.8c7.9-1.4 15.2-4.3 21.7-8.4l-43.2-40.6 45.7 1.3 7.8-18.1z"/><path d="M179.9 131l-52.8-52.8c-7.9 1.4-15.2 4.3-21.7 8.4l43.2 40.6-45.7-1.3L95 144l52.8 52.8c7.9-1.4 15.2-4.3 21.7-8.4l-43.2-40.6 45.7 1.3 7.9-18.1z"/><path d="M180.7 131.7l-52.8-52.8c-7.9 1.4-15.2 4.3-21.7 8.4l43.2 40.6-45.7-1.3-7.8 18.1 52.8 52.8c7.9-1.4 15.2-4.3 21.7-8.4l-43.2-40.6 45.7 1.3 7.8-18.1z"/><path d="M181.4 132.5l-52.8-52.8c-7.9 1.4-15.2 4.3-21.7 8.4l43.2 40.6-45.7-1.3-7.8 18.1 52.8 52.8c7.9-1.4 15.2-4.3 21.7-8.4l-43.2-40.6 45.7 1.3 7.8-18.1z"/><path d="M182.1 133.2l-52.8-52.8c-7.9 1.4-15.2 4.3-21.7 8.4l43.2 40.6-45.7-1.3-7.8 18.1 52.8 52.8c7.9-1.4 15.2-4.3 21.7-8.4L128.5 150l45.7 1.3 7.9-18.1z"/><path d="M182.8 133.9L129.9 81c-7.9 1.4-15.2 4.3-21.7 8.4l43.2 40.6-45.7-1.3-7.8 18.1 52.8 52.8c7.9-1.4 15.2-4.3 21.7-8.4l-43.2-40.6 45.7 1.3 7.9-18z"/><path d="M183.5 134.6l-52.8-52.8c-7.9 1.4-15.2 4.3-21.7 8.4l43.2 40.6-45.7-1.3-7.8 18.1 52.8 52.8c7.9-1.4 15.2-4.3 21.7-8.4L130 151.4l45.7 1.3 7.8-18.1z"/><path d="M184.2 135.3l-52.8-52.8c-7.9 1.4-15.2 4.3-21.7 8.4l43.2 40.6-45.7-1.3-7.8 18.1 52.8 52.8c7.9-1.4 15.2-4.3 21.7-8.4l-43.2-40.6 45.7 1.3 7.8-18.1z"/><path d="M184.9 136l-52.8-52.8c-7.9 1.4-15.2 4.3-21.7 8.4l43.2 40.6-45.7-1.3-7.8 18.1 52.8 52.8c7.9-1.4 15.2-4.3 21.7-8.4l-43.2-40.6 45.7 1.3 7.8-18.1z"/><path d="M185.6 136.7l-52.8-52.8c-7.9 1.4-15.2 4.3-21.7 8.4l43.2 40.6-45.7-1.3-7.8 18.1 52.8 52.8c7.9-1.4 15.2-4.3 21.7-8.4L132 153.5l45.7 1.3 7.9-18.1z"/><path d="M186.3 137.4l-52.8-52.8c-7.9 1.4-15.2 4.3-21.7 8.4l43.2 40.6-45.7-1.3-7.8 18.1 52.8 52.8c7.9-1.4 15.2-4.3 21.7-8.4l-43.2-40.6 45.7 1.3 7.8-18.1z"/><path d="M187 138.1l-52.8-52.8c-7.9 1.4-15.2 4.3-21.7 8.4l43.2 40.6L110 133l-7.8 18.1 52.8 52.8c7.9-1.4 15.2-4.3 21.7-8.4l-43.2-40.6 45.7 1.3 7.8-18.1z"/><path d="M187.7 138.8L134.9 86c-7.9 1.4-15.2 4.3-21.7 8.4l43.2 40.6-45.7-1.3-7.8 18.1 52.8 52.8c7.9-1.4 15.2-4.3 21.7-8.4l-43.2-40.6 45.7 1.3 7.8-18.1z"/><path d="M188.4 139.5l-52.8-52.8c-7.9 1.4-15.2 4.3-21.7 8.4l43.2 40.6-45.7-1.3-7.8 18.1 52.8 52.8c7.9-1.4 15.2-4.3 21.7-8.4l-43.2-40.6 45.7 1.3 7.8-18.1z"/><path d="M189.1 140.2l-52.8-52.8c-7.9 1.4-15.2 4.3-21.7 8.4l43.2 40.6-45.7-1.3-7.8 18.1 52.8 52.8c7.9-1.4 15.2-4.3 21.7-8.4L135.6 157l45.7 1.3 7.8-18.1z"/><path d="M189.8 140.9L137 88.1c-7.9 1.4-15.2 4.3-21.7 8.4l43.2 40.6-45.7-1.3-7.8 18.1 52.8 52.8c7.9-1.4 15.2-4.3 21.7-8.4l-43.2-40.6L182 159l7.8-18.1z"/><path d="M190.6 141.6l-52.8-52.8c-7.9 1.4-15.2 4.3-21.7 8.4l43.2 40.6-45.7-1.3-7.8 18.1 52.8 52.8c7.9-1.4 15.2-4.3 21.7-8.4L137 158.5l45.7 1.3 7.9-18.2z"/><path d="M191.3 142.4l-52.8-52.8c-7.9 1.4-15.2 4.3-21.7 8.4l43.2 40.6-45.7-1.3-7.8 18.1 52.8 52.8c7.9-1.4 15.2-4.3 21.7-8.4l-43.2-40.6 45.7 1.3 7.8-18.1z"/><path d="M192 143.1l-52.8-52.8c-7.9 1.4-15.2 4.3-21.7 8.4l43.2 40.6L115 138l-7.8 18.1 52.8 52.8c7.9-1.4 15.2-4.3 21.7-8.4l-43.2-40.6 45.7 1.3 7.8-18.1z"/><path d="M192.7 143.8L139.9 91c-7.9 1.4-15.2 4.3-21.7 8.4l43.2 40.6-45.7-1.3-7.8 18.1 52.8 52.8c7.9-1.4 15.2-4.3 21.7-8.4l-43.2-40.6 45.7 1.3 7.8-18.1z"/><path d="M193.4 144.5l-52.8-52.8c-7.9 1.4-15.2 4.3-21.7 8.4l43.2 40.6-45.7-1.3-7.8 18.1 52.8 52.8c7.9-1.4 15.2-4.3 21.7-8.4l-43.2-40.6 45.7 1.3 7.8-18.1z"/><path d="M194.1 145.2l-52.8-52.8c-7.9 1.4-15.2 4.3-21.7 8.4l43.2 40.6L117 140l-7.8 18.1 52.8 52.8c7.9-1.4 15.2-4.3 21.7-8.4L140.5 162l45.7 1.3 7.9-18.1z"/><path d="M194.8 145.9L142 93c-7.9 1.4-15.2 4.3-21.7 8.4l43.2 40.6-45.7-1.3-7.8 18.1 52.8 52.8c7.9-1.4 15.2-4.3 21.7-8.4l-43.2-40.6L187 164l7.8-18.1z"/><path d="M195.5 146.6l-52.8-52.8c-7.9 1.4-15.2 4.3-21.7 8.4l43.2 40.6-45.7-1.3-7.8 18.1 52.8 52.8c7.9-1.4 15.2-4.3 21.7-8.4L142 163.4l45.7 1.3 7.8-18.1z"/><path d="M196.2 147.3l-52.8-52.8c-7.9 1.4-15.2 4.3-21.7 8.4l43.2 40.6-45.7-1.3-7.8 18.1 52.8 52.8c7.9-1.4 15.2-4.3 21.7-8.4l-43.2-40.6 45.7 1.3 7.8-18.1z"/><path d="M196.9 148l-52.8-52.8c-7.9 1.4-15.2 4.3-21.7 8.4l43.2 40.6-45.7-1.3-7.8 18.1 52.8 52.8c7.9-1.4 15.2-4.3 21.7-8.4l-43.2-40.6 45.7 1.3 7.8-18.1z"/><path d="M197.6 148.7l-52.8-52.8c-7.9 1.4-15.2 4.3-21.7 8.4l43.2 40.6-45.7-1.3-7.8 18.1 52.8 52.8c7.9-1.4 15.2-4.3 21.7-8.4l-43.2-40.6 45.7 1.3 7.8-18.1z"/><path d="M198.3 149.4l-52.8-52.8c-7.9 1.4-15.2 4.3-21.7 8.4l43.2 40.6-45.7-1.3-7.8 18.1 52.8 52.8c7.9-1.4 15.2-4.3 21.7-8.4l-43.2-40.6 45.7 1.3 7.8-18.1z"/><path d="M199 150.1l-52.8-52.8c-7.9 1.4-15.2 4.3-21.7 8.4l43.2 40.6L122 145l-7.8 18.1 52.8 52.8c7.9-1.4 15.2-4.3 21.7-8.4L145.5 167l45.7 1.3 7.8-18.2z"/><path d="M199.7 150.8L146.9 98c-7.9 1.4-15.2 4.3-21.7 8.4l43.2 40.6-45.7-1.3-7.8 18.1 52.8 52.8c7.9-1.4 15.2-4.3 21.7-8.4l-43.2-40.6 45.7 1.3 7.8-18.1z"/><path d="M200.5 151.5l-52.8-52.8c-7.9 1.4-15.2 4.3-21.7 8.4l43.2 40.6-45.7-1.3-7.8 18.1 52.8 52.8c7.9-1.4 15.2-4.3 21.7-8.4L147 168.3l45.7 1.3 7.8-18.1z"/><path d="M201.2 152.3l-52.8-52.8c-7.9 1.4-15.2 4.3-21.7 8.4l43.2 40.6-45.7-1.3-7.8 18.1 52.8 52.8c7.9-1.4 15.2-4.3 21.7-8.4l-43.2-40.6 45.7 1.3 7.8-18.1z"/><path d="M201.9 153L149 100.1c-7.9 1.4-15.2 4.3-21.7 8.4l43.2 40.6-45.7-1.3-7.8 18.1 52.8 52.8c7.9-1.4 15.2-4.3 21.7-8.4l-43.2-40.6L194 171l7.9-18z"/><path d="M202.6 153.7l-52.8-52.8c-7.9 1.4-15.2 4.3-21.7 8.4l43.2 40.6-45.7-1.3-7.8 18.1 52.8 52.8c7.9-1.4 15.2-4.3 21.7-8.4L149 170.5l45.7 1.3 7.9-18.1z"/><path d="M203.3 154.4l-52.8-52.8c-7.9 1.4-15.2 4.3-21.7 8.4l43.2 40.6-45.7-1.3-7.8 18.1 52.8 52.8c7.9-1.4 15.2-4.3 21.7-8.4l-43.2-40.6 45.7 1.3 7.8-18.1z"/><path d="M204 155.1l-52.8-52.8c-7.9 1.4-15.2 4.3-21.7 8.4l43.2 40.6L127 150l-7.8 18.1 52.8 52.8c7.9-1.4 15.2-4.3 21.7-8.4l-43.2-40.6 45.7 1.3 7.8-18.1z"/><path d="M204.7 155.8L151.9 103c-7.9 1.4-15.2 4.3-21.7 8.4l43.2 40.6-45.7-1.3-7.8 18.1 52.8 52.8c7.9-1.4 15.2-4.3 21.7-8.4l-43.2-40.6 45.7 1.3 7.8-18.1z"/><path d="M205.4 156.5l-52.8-52.8c-7.9 1.4-15.2 4.3-21.7 8.4l43.2 40.6-45.7-1.3-7.8 18.1 52.8 52.8c7.9-1.4 15.2-4.3 21.7-8.4l-43.2-40.6 45.7 1.3 7.8-18.1z"/><path d="M206.1 157.2l-52.8-52.8c-7.9 1.4-15.2 4.3-21.7 8.4l43.2 40.6L129 152l-7.8 18.1 52.8 52.8c7.9-1.4 15.2-4.3 21.7-8.4L152.5 174l45.7 1.3 7.9-18.1z"/></g><linearGradient id="SVGID_3_" gradientUnits="userSpaceOnUse" x1="69.969" y1="90.031" x2="90.076" y2="69.924"><stop offset="0" stop-color="#F2F2F2"/><stop offset=".039" stop-color="#F6F6F6"/><stop offset=".161" stop-color="#FDFDFD"/><stop offset=".5" stop-color="#FFF"/><stop offset=".839" stop-color="#FDFDFD"/><stop offset=".961" stop-color="#F6F6F6"/><stop offset="1" stop-color="#F2F2F2"/></linearGradient><path class="st2" d="M45.4 68.3l22.8 22.1 46.4 1.3L92 69.6z"/><path class="st3" d="M122.4 73.5l-52-52c-7.9 1.3-15.3 4.1-21.8 8.2l66 62 7.8-18.2zm-84.8 13l52.1 52.1c7.9-1.3 15.3-4.1 21.8-8.2l-66-62-7.9 18.1z"/></svg>