<?xml version="1.0" encoding="utf-8"?>
<!-- Generator: Adobe Illustrator 21.0.0, SVG Export Plug-In . SVG Version: 6.00 Build 0)  -->
<svg version="1.1" id="Layer_1" xmlns="http://www.w3.org/2000/svg" xmlns:xlink="http://www.w3.org/1999/xlink" x="0px" y="0px"
	 viewBox="0 0 62 62" style="enable-background:new 0 0 62 62;" xml:space="preserve">
<style type="text/css">
	.st1{fill:#FFFFFF;}
	.st0{fill:#1E88E5;}
</style>
<g>
	<path id="Logo_Right" class="st0" d="M31,0c-1.9,0-3.7,0.2-5.4,0.5l27.2,27.2L48.7,37l-22.3-0.7l21,21C56.1,51.9,62,42.1,62,31
		C62,13.9,48.1,0,31,0z"/>
	<path id="Logo_Left" class="st0" d="M8.8,34.3l4.1-9.4l22.3,0.7L14.4,4.8C5.7,10.3,0,20,0,31c0,17.1,13.9,31,31,31
		c1.7,0,3.4-0.1,5-0.4L8.8,34.3z"/>
</g>
<g>
	<g>
		<path class="st1" d="M52.7,27.7L25.6,0.5c-4.1,0.7-7.8,2.2-11.2,4.4l20.8,20.8L12.9,25l-4.1,9.4L36,61.6c4.7-0.8,9.1-2.6,12.8-5.3
			c-0.5,0.4-1,0.7-1.5,1l-21-21L48.7,37L52.7,27.7z"/>
	</g>
</g>
</svg>
